<svg width="67" height="58" viewBox="0 0 67 58" fill="none" xmlns="http://www.w3.org/2000/svg">
<path id="Combined Shape" fill-rule="evenodd" clip-rule="evenodd" d="M62.3588 0H4.64092C2.08205 0 0 2.0842 0 4.64571V43.8444C0 46.4059 2.08205 48.4901 4.64092 48.4901H38.2971L37.2809 54.6941C37.0897 55.8619 37.4755 56.9198 38.3133 57.5235C39.1508 58.1272 40.2747 58.1595 41.3209 57.6076L48.5822 53.7817C48.7848 53.6776 49.343 53.6776 49.5456 53.7817L56.807 57.6076C57.3037 57.8694 57.8181 57.9997 58.3111 57.9997C58.8564 57.9997 59.3751 57.8402 59.8148 57.5232C60.6523 56.9195 61.0381 55.8614 60.8472 54.6936L59.8312 48.4898H62.3591C64.918 48.4898 67 46.4056 67 43.8441V4.64571C66.9997 2.08393 64.9177 0 62.3588 0ZM49.064 40.5271C44.6043 40.5271 40.9756 36.8947 40.9756 32.4303C40.9756 27.9659 44.6043 24.3334 49.064 24.3334C53.5238 24.3334 57.1525 27.9659 57.1525 32.4303C57.1525 36.8947 53.5238 40.5271 49.064 40.5271ZM51.3986 50.2581C50.0458 49.5451 48.082 49.5451 46.7295 50.2581L41.5959 52.963L43.2279 42.9975C44.9588 43.9593 46.9483 44.5088 49.0643 44.5088C51.1803 44.5088 53.1695 43.9591 54.9007 42.9975L55.5367 46.8827C55.5372 46.8849 55.5377 46.8872 55.538 46.8895C55.5387 46.8938 55.5393 46.8982 55.5401 46.9023L56.5327 52.9632L51.3986 50.2581ZM63.0218 43.8444C63.0218 44.2041 62.7182 44.508 62.3588 44.508H59.1789L58.4525 40.0723C58.4496 40.0548 58.4448 40.0381 58.4414 40.0206C60.1214 37.9451 61.1307 35.3037 61.1307 32.4303C61.1307 25.7699 55.7178 20.3514 49.0643 20.3514C42.4108 20.3514 36.9979 25.7699 36.9979 32.4303C36.9979 35.3037 38.0073 37.9446 39.6873 40.0206C39.6865 40.0245 39.6856 40.0284 39.6847 40.0323C39.684 40.0356 39.6832 40.0389 39.6825 40.0422C39.6801 40.0521 39.6778 40.0621 39.6761 40.0721L38.9492 44.5115C38.9441 44.5113 38.939 44.511 38.9339 44.5107C38.9299 44.5104 38.9259 44.5102 38.9219 44.5099C38.909 44.509 38.8963 44.508 38.8832 44.508H4.64092C4.28158 44.508 3.97793 44.2041 3.97793 43.8444V4.64571C3.97793 4.286 4.28158 3.98204 4.64092 3.98204H62.3588C62.7182 3.98204 63.0218 4.286 63.0218 4.64571V43.8444ZM55.3248 11.4582H10.2416C9.14287 11.4582 8.25261 12.3494 8.25261 13.4492C8.25261 14.549 9.14287 15.4402 10.2416 15.4402H55.3248C56.4235 15.4402 57.3137 14.549 57.3137 13.4492C57.3137 12.3494 56.4235 11.4582 55.3248 11.4582ZM10.2416 22.2543H29.3356C30.4343 22.2543 31.3246 23.1455 31.3246 24.2453C31.3246 25.3451 30.4343 26.2363 29.3356 26.2363H10.2416C9.14287 26.2363 8.25261 25.3451 8.25261 24.2453C8.25261 23.1455 9.14287 22.2543 10.2416 22.2543Z" fill="url(#paint0_linear)"/>
<defs>
<linearGradient id="paint0_linear" x1="-51.5186" y1="19.8573" x2="11.5279" y2="95.77" gradientUnits="userSpaceOnUse">
<stop stop-color="#DCFF73"/>
<stop offset="1" stop-color="#8ECA6B"/>
</linearGradient>
</defs>
</svg>
