<svg width="129" height="48" viewBox="0 0 129 48" fill="none" xmlns="http://www.w3.org/2000/svg">
<g id="Edwisely_logo">
<path id="Path" d="M0 12.0838L20.2323 0L40.4096 12.0838V36.095L20.2982 48L0 36.218V12.0838Z" fill="white"/>
<g id="Group">
<path id="Path_2" d="M21.6929 27.6295H14.0651V32.7691H22.5968V36.7704H9.36938V15.1543H22.1448V19.1556H14.0651V23.6628H21.6929V27.6295Z" fill="#4E54C8"/>
<path id="Shape" fill-rule="evenodd" clip-rule="evenodd" d="M40.2222 32.1022V14.0045L35.5265 14.016V22.513H35.4604C34.788 21.4322 33.366 20.7423 31.5032 20.7423C27.9208 20.7423 24.7462 23.8122 24.7682 29.0898C24.7682 33.9649 27.6452 37.1498 31.1945 37.1498C33.1456 37.1498 34.9643 36.253 35.9123 34.4938H35.9784L36.1769 36.7934H40.3435C40.2773 35.7471 40.2222 33.8844 40.2222 32.1022ZM35.4714 26.8592C35.5265 27.1351 35.5375 27.4686 35.5375 27.7445V29.7912C35.5375 30.1821 35.5155 30.5615 35.4383 30.895C35.1517 32.2747 34.0605 33.2405 32.7267 33.2405C30.7757 33.2405 29.5301 31.5733 29.5301 28.9288C29.5301 26.4568 30.6103 24.4676 32.7598 24.4676C34.1817 24.4676 35.2068 25.5484 35.4714 26.8592Z" fill="#4E54C8"/>
</g>
<g id="Group_2">
<path id="Path_3" d="M46.8925 19.3869L48.1247 25.6991C48.4271 27.2771 48.7408 28.9904 48.9984 30.7488H49.0656C49.3569 29.0017 49.8161 27.2433 50.1858 25.7329L51.7988 19.3869H55.5737L57.1083 25.5187C57.5228 27.2771 57.9261 28.9904 58.2285 30.7488H58.2957C58.5085 29.0017 58.8222 27.2659 59.1806 25.4962L60.48 19.3869H65.1287L60.4464 34.7841H55.9882L54.5544 29.385C54.1623 27.8745 53.8823 26.4994 53.5574 24.5719H53.4902C53.2102 26.4994 52.8966 27.9422 52.5045 29.3511L50.9699 34.7729H46.5005L42.0422 19.3756H46.8925V19.3869Z" fill="black"/>
<path id="Shape_2" fill-rule="evenodd" clip-rule="evenodd" d="M69.6877 17.5045C71.2671 17.5045 72.2528 16.4449 72.2416 15.1149C72.2192 13.7397 71.2671 12.714 69.7325 12.714C68.2091 12.714 67.2121 13.751 67.2121 15.1149C67.2009 16.4449 68.1755 17.5045 69.6877 17.5045ZM67.3353 19.3869V34.7841H72.096V19.3869H67.3353Z" fill="black"/>
<path id="Path_4" d="M75.8933 30.6136C76.7559 31.1546 78.5929 31.7633 79.9707 31.7633C81.4045 31.7633 82.0206 31.2786 82.0206 30.4896C82.0206 29.6893 81.5389 29.306 79.7803 28.7086C76.599 27.6603 75.4005 25.9132 75.4117 24.1097C75.4117 21.2129 77.8424 19.0487 81.6397 19.0487C83.432 19.0487 85.0114 19.477 85.9523 19.9504L85.1234 23.2531C84.4289 22.8924 83.1071 22.3852 81.8078 22.3852C80.6428 22.3852 79.9819 22.8473 79.9819 23.6251C79.9819 24.3577 80.5868 24.7522 82.4687 25.406C85.3699 26.3979 86.5908 27.8971 86.6132 30.1401C86.6132 33.0144 84.3841 35.1335 80.0043 35.1335C78.0104 35.1335 76.2182 34.6827 75.0532 34.0514L75.8933 30.6136Z" fill="black"/>
<path id="Shape_3" fill-rule="evenodd" clip-rule="evenodd" d="M97.4676 31.5604C95.2496 31.5604 93.3006 30.6136 93.155 28.6298L102.99 28.6185C103.068 28.2691 103.158 27.5589 103.158 26.7248C103.158 22.915 101.287 19.0375 96.325 19.0375C91.0379 19.0375 88.6071 23.3658 88.6071 27.2771C88.6071 32.0677 91.5867 35.111 96.7731 35.111C98.8229 35.111 100.738 34.7954 102.318 34.1417L101.679 30.9067C100.391 31.3463 99.0806 31.5604 97.4676 31.5604ZM96.0674 22.2274C98.2293 22.2274 98.7445 24.2 98.7333 25.3497H93.1101C93.2446 24.076 94.0511 22.2274 96.0674 22.2274Z" fill="black"/>
<path id="Path_5" d="M105.992 12.4547H110.753V34.7954H105.992L105.992 12.4547Z" fill="black"/>
<path id="Path_6" d="M118.157 19.3868L120.442 26.9615C120.7 27.8632 121.002 29.0129 121.204 29.8245H121.304C121.517 28.9904 121.764 27.8519 121.988 26.9615L123.87 19.3981H128.944L125.393 29.5314C123.198 35.6408 121.73 38.0867 120.005 39.631C118.37 41.0738 116.611 41.6035 115.424 41.7388L114.404 37.7035C115.009 37.5908 115.749 37.309 116.477 36.8919C117.205 36.5087 117.989 35.7422 118.437 34.9757C118.594 34.739 118.706 34.491 118.706 34.2881C118.706 34.1078 118.661 33.8824 118.493 33.4991L112.881 19.4094L118.157 19.3868Z" fill="black"/>
</g>
</g>
</svg>
