<svg width="24" height="24" viewBox="0 0 24 24" fill="none" xmlns="http://www.w3.org/2000/svg">
<g id="Group 65">
<path id="Path" d="M21 14.25C21.3797 14.25 21.6935 14.5322 21.7432 14.8982L21.75 15V19C21.75 20.4625 20.6083 21.6584 19.1675 21.745L19 21.75H5C3.53747 21.75 2.3416 20.6083 2.25502 19.1675L2.25 19V15C2.25 14.5858 2.58579 14.25 3 14.25C3.3797 14.25 3.69349 14.5322 3.74315 14.8982L3.75 15V19C3.75 19.6472 4.24187 20.1795 4.87219 20.2435L5 20.25H19C19.6472 20.25 20.1795 19.7581 20.2435 19.1278L20.25 19V15C20.25 14.5858 20.5858 14.25 21 14.25Z" fill="#595CD2"/>
<path id="Path_2" d="M6.46967 9.46967C6.73594 9.2034 7.1526 9.1792 7.44621 9.39705L7.53033 9.46967L12 13.939L16.4697 9.46967C16.7359 9.2034 17.1526 9.1792 17.4462 9.39705L17.5303 9.46967C17.7966 9.73594 17.8208 10.1526 17.6029 10.4462L17.5303 10.5303L12.5303 15.5303C12.2641 15.7966 11.8474 15.8208 11.5538 15.6029L11.4697 15.5303L6.46967 10.5303C6.17678 10.2374 6.17678 9.76256 6.46967 9.46967Z" fill="#595CD2"/>
<path id="Path_3" d="M12 2.25C12.3797 2.25 12.6935 2.53215 12.7432 2.89823L12.75 3V15C12.75 15.4142 12.4142 15.75 12 15.75C11.6203 15.75 11.3065 15.4678 11.2568 15.1018L11.25 15V3C11.25 2.58579 11.5858 2.25 12 2.25Z" fill="#595CD2"/>
</g>
</svg>
