<svg width="27" height="30" viewBox="0 0 27 30" fill="none" xmlns="http://www.w3.org/2000/svg">
<g id="Group 17">
<path id="Path" d="M19.75 11.275L7.25 4.06665" stroke="#4E54C8" stroke-width="1.2" stroke-linecap="round" stroke-linejoin="round"/>
<path id="Path_2" fill-rule="evenodd" clip-rule="evenodd" d="M26 20.4416V9.33049C25.999 8.3391 25.4697 7.4234 24.6111 6.92771L14.8889 1.37215C14.0294 0.875949 12.9706 0.875949 12.1111 1.37215L2.38889 6.92771C1.53032 7.4234 1.00102 8.3391 1 9.33049V20.4416C1.00102 21.433 1.53032 22.3487 2.38889 22.8444L12.1111 28.3999C12.9706 28.8961 14.0294 28.8961 14.8889 28.3999L24.6111 22.8444C25.4697 22.3487 25.999 21.433 26 20.4416Z" stroke="#4E54C8" stroke-width="1.2" stroke-linecap="round" stroke-linejoin="round"/>
<path id="Path_3" d="M1.375 7.88599L13.5 14.8999L25.625 7.88599" stroke="#4E54C8" stroke-width="1.2" stroke-linecap="round" stroke-linejoin="round"/>
<path id="Path_4" d="M13.5 28.886V14.886" stroke="#4E54C8" stroke-width="1.2" stroke-linecap="round" stroke-linejoin="round"/>
</g>
</svg>
