<svg width="24" height="24" viewBox="0 0 24 24" fill="none" xmlns="http://www.w3.org/2000/svg">
<circle cx="11.55" cy="9.3" r="6.3" stroke="#191648" stroke-linejoin="round"/>
<path fill-rule="evenodd" clip-rule="evenodd" d="M11.55 11.2594L9.87774 12.1386C9.79568 12.1817 9.69419 12.1502 9.65105 12.0681C9.63387 12.0354 9.62794 11.998 9.63418 11.9616L9.95355 10.0995L8.60068 8.78082C8.53429 8.71611 8.53294 8.60984 8.59765 8.54345C8.62341 8.51702 8.65718 8.49981 8.69371 8.4945L10.5633 8.22283L11.3995 6.52867C11.4405 6.44553 11.5411 6.4114 11.6243 6.45243C11.6574 6.46877 11.6842 6.49556 11.7005 6.52867L12.5366 8.22283L14.4062 8.4945C14.498 8.50784 14.5616 8.59301 14.5482 8.68476C14.5429 8.72129 14.5257 8.75505 14.4993 8.78082L13.1464 10.0995L13.4658 11.9616C13.4814 12.053 13.4201 12.1398 13.3287 12.1554C13.2923 12.1617 13.2549 12.1557 13.2222 12.1386L11.55 11.2594Z" stroke="#191648" stroke-linejoin="round"/>
<path d="M7.95001 14.7V21L11.55 19.0615L15.15 21V14.7" stroke="#191648" stroke-linecap="round" stroke-linejoin="round"/>
</svg>
