<svg width="24" height="28" viewBox="0 0 24 28" fill="none" xmlns="http://www.w3.org/2000/svg">
<path fill-rule="evenodd" clip-rule="evenodd" d="M4.50879 3.04069C-0.165069 6.5627 -1.09883 13.2068 2.42317 17.8806C5.76622 22.317 11.9221 23.3837 16.536 20.4687L21.4476 26.9865L21.5143 27.0652C21.8193 27.3852 22.3226 27.4328 22.6842 27.1603C23.0737 26.8668 23.1515 26.3131 22.858 25.9236L17.9465 19.4058C22.0203 15.7741 22.6918 9.56268 19.3487 5.12631C15.8267 0.45245 9.18265 -0.481311 4.50879 3.04069ZM5.57165 4.45116C9.46653 1.51615 15.0032 2.29429 17.9382 6.18917C20.8733 10.084 20.0951 15.6208 16.2002 18.5558C12.3054 21.4908 6.76864 20.7126 3.83363 16.8178C0.898631 12.9229 1.67677 7.38616 5.57165 4.45116Z" fill="white"/>
</svg>
