<svg width="60" height="60" viewBox="0 0 60 60" fill="none" xmlns="http://www.w3.org/2000/svg">
<path id="Shape" fill-rule="evenodd" clip-rule="evenodd" d="M53.5332 18.8281H45.8771V12.93H58.2399C58.2408 12.93 58.2417 12.93 58.2422 12.93C59.2131 12.93 60 12.1426 60 11.1721C60 10.659 59.7807 10.1975 59.4301 9.87617L56.0188 6.46479L59.4832 3.00076C59.9858 2.49811 60.136 1.74186 59.864 1.0854C59.5921 0.428483 58.9513 0 58.2404 0H44.1193C43.1488 0 42.3619 0.786926 42.3619 1.75788V18.8281H40.3537C36.7891 18.8281 33.8892 21.7286 33.8892 25.2933V28.9569C33.0043 28.5015 32.0023 28.2423 30.9402 28.2423H29.0575C25.4929 28.2423 22.5929 31.1424 22.5929 34.7071V38.3712C21.7076 37.9157 20.7056 37.6566 19.6436 37.6566H17.7612C14.1962 37.6566 11.2962 40.5567 11.2962 44.1214V47.7855C10.4114 47.3295 9.40933 47.0704 8.34732 47.0704H6.46454C2.89993 47.0704 0 49.9705 0 53.5352V58.2421C0 59.2131 0.786896 60 1.75781 60H58.2399C59.2108 60 59.9977 59.2131 59.9977 58.2421V25.2933C59.9977 21.7286 57.0978 18.8281 53.5332 18.8281ZM45.8771 3.51576H53.9964L52.2903 5.22191C51.9603 5.55151 51.7754 5.99876 51.7754 6.46479C51.7754 6.93126 51.9603 7.37806 52.2903 7.70812L53.9964 9.41427H45.8771V3.51576ZM3.51562 53.5352C3.51562 51.9092 4.83856 50.5862 6.46454 50.5862H8.34732C9.9733 50.5862 11.2962 51.9092 11.2962 53.5352V56.4847H3.51562V53.5352ZM14.8119 53.5352V44.1214C14.8119 42.4949 16.1348 41.1719 17.7608 41.1719H19.6436C21.2695 41.1719 22.5925 42.4949 22.5925 44.1214V56.4847H14.8119V53.5352ZM26.1081 44.1214V34.7071C26.1081 33.0811 27.4315 31.7581 29.0575 31.7581H30.9402C32.5662 31.7581 33.8892 33.0811 33.8892 34.7071V56.4847H26.1081V44.1214ZM56.4821 56.4847H37.4048V25.2933C37.4048 23.6668 38.7277 22.3438 40.3537 22.3438H53.5332C55.1591 22.3438 56.4821 23.6668 56.4821 25.2933V56.4847Z" fill="url(#paint0_linear)"/>
<defs>
<linearGradient id="paint0_linear" x1="89.5876" y1="29.4719" x2="41.385" y2="-62.8787" gradientUnits="userSpaceOnUse">
<stop stop-color="#FF723B"/>
<stop offset="0.845644" stop-color="#FFDF57"/>
<stop offset="1" stop-color="#FFED5B"/>
</linearGradient>
</defs>
</svg>
