<svg width="72" height="57" viewBox="0 0 72 57" fill="none" xmlns="http://www.w3.org/2000/svg">
<g id="student copy">
<g id="Shape">
<path fill-rule="evenodd" clip-rule="evenodd" d="M66.607 34.8938V16.4569L67.3843 16.2273C70.3727 15.3443 71 13.8493 71 12.7507C70.9999 11.652 70.3725 10.1571 67.3842 9.27449L41.8122 1.72135C40.2372 1.25615 38.173 1 36.0003 1C33.8274 1 31.7634 1.25615 30.188 1.72135L4.61607 9.27449C1.6274 10.1571 1 11.652 1 12.7508C1 13.8495 1.62727 15.3445 4.61594 16.2274L14.1798 19.0523V28.9708C14.1798 30.8608 15.4277 33.5232 21.3723 35.4742C25.3098 36.7664 30.5047 37.4781 36 37.4781C41.4951 37.4781 46.69 36.7664 50.6275 35.4742C56.5723 33.5231 57.8202 30.8608 57.8202 28.9708V19.0524L62.5053 17.6685V34.8938C59.9549 35.7393 58.1121 38.1145 58.1121 40.907V49.5576C58.1121 53.0559 61.0027 55.902 64.556 55.902C68.1092 55.902 71 53.056 71 49.5576V40.907C71.0001 38.1145 69.1573 35.7392 66.607 34.8938ZM31.3665 5.58925C32.5525 5.23887 34.2414 5.03804 36.0003 5.03804C37.7589 5.03804 39.4478 5.23887 40.6337 5.58912L64.8803 12.7508L55.17 15.619C55.1644 15.6208 55.1589 15.6222 55.1533 15.624L40.6338 19.9127C39.4479 20.2629 37.7592 20.4637 36.0004 20.4637C34.2417 20.4637 32.5526 20.2629 31.3667 19.9127L16.8472 15.624C16.8416 15.6222 16.8361 15.6208 16.8305 15.619L7.12021 12.7508L31.3665 5.58925ZM53.7189 28.9707C53.7189 29.231 52.9742 30.4473 49.3308 31.643C45.8004 32.8017 41.0661 33.4397 36.0001 33.4397C30.934 33.4397 26.1997 32.8017 22.6695 31.643C19.0262 30.4473 18.2814 29.2309 18.2814 28.9707V20.2636L30.1881 23.7804C31.7632 24.2456 33.8274 24.5018 36.0003 24.5018C38.173 24.5018 40.2371 24.2456 41.8123 23.7804L53.7189 20.2636V28.9707ZM66.8986 49.5574C66.8986 50.8291 65.8478 51.8636 64.5562 51.8636C63.2646 51.8636 62.2138 50.8292 62.2138 49.5574V40.9069C62.2138 39.6351 63.2645 38.6004 64.5562 38.6004C65.8479 38.6004 66.8986 39.6351 66.8986 40.9069V49.5574Z" fill="url(#paint0_linear)"/>
<path d="M66.607 34.8938H66.207V35.1826L66.4811 35.2734L66.607 34.8938ZM66.607 16.4569L66.4936 16.0733L66.207 16.158V16.4569H66.607ZM67.3843 16.2273L67.4977 16.6109L67.4977 16.6109L67.3843 16.2273ZM71 12.7507H71.4V12.7506L71 12.7507ZM67.3842 9.27449L67.2709 9.65811V9.65811L67.3842 9.27449ZM41.8122 1.72135L41.9255 1.33774V1.33774L41.8122 1.72135ZM30.188 1.72135L30.0747 1.33773L30.0746 1.33774L30.188 1.72135ZM4.61607 9.27449L4.72936 9.65811L4.72938 9.65811L4.61607 9.27449ZM4.61594 16.2274L4.50262 16.611L4.50263 16.611L4.61594 16.2274ZM14.1798 19.0523H14.5798V18.7533L14.2931 18.6686L14.1798 19.0523ZM21.3723 35.4742L21.2476 35.8542L21.2476 35.8542L21.3723 35.4742ZM50.6275 35.4742L50.7523 35.8542L50.7523 35.8542L50.6275 35.4742ZM57.8202 19.0524L57.7069 18.6688L57.4202 18.7535V19.0524H57.8202ZM62.5053 17.6685H62.9053V17.1333L62.3919 17.2849L62.5053 17.6685ZM62.5053 34.8938L62.6311 35.2734L62.9053 35.1825V34.8938H62.5053ZM71 40.907L70.6 40.907V40.907H71ZM31.3665 5.58925L31.4798 5.97287L31.4798 5.97286L31.3665 5.58925ZM40.6337 5.58912L40.747 5.2055L40.747 5.2055L40.6337 5.58912ZM64.8803 12.7508L64.9936 13.1344L66.2924 12.7508L64.9936 12.3672L64.8803 12.7508ZM55.17 15.619L55.0567 15.2353L55.0508 15.2372L55.17 15.619ZM55.1533 15.624L55.2667 16.0076L55.2725 16.0058L55.1533 15.624ZM40.6338 19.9127L40.7471 20.2963L40.7471 20.2963L40.6338 19.9127ZM31.3667 19.9127L31.2534 20.2963L31.2534 20.2963L31.3667 19.9127ZM16.8472 15.624L16.728 16.0059L16.7339 16.0076L16.8472 15.624ZM16.8305 15.619L16.9497 15.2371L16.9438 15.2354L16.8305 15.619ZM7.12021 12.7508L7.00691 12.3672L5.70815 12.7508L7.0069 13.1344L7.12021 12.7508ZM49.3308 31.643L49.206 31.263L49.206 31.263L49.3308 31.643ZM22.6695 31.643L22.7943 31.263L22.7942 31.263L22.6695 31.643ZM18.2814 20.2636L18.3947 19.88L17.8814 19.7283V20.2636H18.2814ZM30.1881 23.7804L30.0748 24.164L30.0748 24.164L30.1881 23.7804ZM41.8123 23.7804L41.9256 24.164L41.9256 24.164L41.8123 23.7804ZM53.7189 20.2636H54.1189V19.7283L53.6056 19.88L53.7189 20.2636ZM67.007 34.8938V16.4569H66.207V34.8938H67.007ZM66.7203 16.8405L67.4977 16.6109L67.271 15.8437L66.4936 16.0733L66.7203 16.8405ZM67.4977 16.6109C69.0406 16.155 70.0215 15.5273 70.6171 14.8295C71.2177 14.1258 71.4 13.3813 71.4 12.7507H70.6C70.6 13.2187 70.4687 13.7711 70.0086 14.3102C69.5434 14.8553 68.7164 15.4166 67.271 15.8437L67.4977 16.6109ZM71.4 12.7506C71.3999 12.12 71.2175 11.3756 70.6169 10.6719C70.0213 9.97414 69.0404 9.34658 67.4975 8.89087L67.2709 9.65811C68.7163 10.085 69.5432 10.6462 70.0084 11.1913C70.4686 11.7303 70.5999 12.2827 70.6 12.7507L71.4 12.7506ZM67.4975 8.89088L41.9255 1.33774L41.6989 2.10497L67.2709 9.65811L67.4975 8.89088ZM41.9255 1.33774C40.304 0.858815 38.1998 0.6 36.0003 0.6V1.4C38.1462 1.4 40.1703 1.65349 41.6989 2.10497L41.9255 1.33774ZM36.0003 0.6C33.8006 0.6 31.6965 0.858817 30.0747 1.33773L30.3012 2.10498C31.8302 1.65349 33.8542 1.4 36.0003 1.4V0.6ZM30.0746 1.33774L4.50277 8.89088L4.72938 9.65811L30.3013 2.10497L30.0746 1.33774ZM4.50278 8.89087C2.9597 9.34657 1.97867 9.97412 1.38305 10.6719C0.782346 11.3756 0.6 12.1201 0.6 12.7508H1.4C1.4 12.2827 1.53136 11.7304 1.99152 11.1913C2.45677 10.6462 3.28378 10.085 4.72936 9.65811L4.50278 8.89087ZM0.6 12.7508C0.6 13.3814 0.782306 14.1259 1.38296 14.8297C1.97854 15.5275 2.95952 16.1552 4.50262 16.611L4.72926 15.8438C3.28368 15.4168 2.45669 14.8555 1.99147 14.3104C1.53133 13.7712 1.4 13.2189 1.4 12.7508H0.6ZM4.50263 16.611L14.0665 19.4359L14.2931 18.6686L4.72924 15.8438L4.50263 16.611ZM13.7798 19.0523V28.9708H14.5798V19.0523H13.7798ZM13.7798 28.9708C13.7798 30.0133 14.1276 31.2489 15.2526 32.4706C16.3694 33.6834 18.2364 34.866 21.2476 35.8542L21.4971 35.0941C18.5636 34.1314 16.8343 33.0073 15.8411 31.9287C14.856 30.8589 14.5798 29.8184 14.5798 28.9708H13.7798ZM21.2476 35.8542C25.236 37.1632 30.4753 37.8781 36 37.8781V37.0781C30.5341 37.0781 25.3836 36.3696 21.4971 35.0941L21.2476 35.8542ZM36 37.8781C41.5246 37.8781 46.7638 37.1632 50.7523 35.8542L50.5028 35.0941C46.6163 36.3696 41.4657 37.0781 36 37.0781V37.8781ZM50.7523 35.8542C53.7636 34.8659 55.6305 33.6834 56.7474 32.4705C57.8724 31.2489 58.2202 30.0133 58.2202 28.9708H57.4202C57.4202 29.8184 57.144 30.8589 56.1589 31.9286C55.1657 33.0072 53.4363 34.1313 50.5028 35.0941L50.7523 35.8542ZM58.2202 28.9708V19.0524H57.4202V28.9708H58.2202ZM57.9335 19.436L62.6186 18.0521L62.3919 17.2849L57.7069 18.6688L57.9335 19.436ZM62.1053 17.6685V34.8938H62.9053V17.6685H62.1053ZM62.3794 34.5141C59.6742 35.411 57.7121 37.933 57.7121 40.907H58.5121C58.5121 38.296 60.2356 36.0677 62.6311 35.2734L62.3794 34.5141ZM57.7121 40.907V49.5576H58.5121V40.907H57.7121ZM57.7121 49.5576C57.7121 53.2826 60.7877 56.302 64.556 56.302V55.502C61.2177 55.502 58.5121 52.8291 58.5121 49.5576H57.7121ZM64.556 56.302C68.3242 56.302 71.4 53.2828 71.4 49.5576H70.6C70.6 52.8292 67.8942 55.502 64.556 55.502V56.302ZM71.4 49.5576V40.907H70.6V49.5576H71.4ZM71.4 40.907C71.4001 37.933 69.4381 35.4109 66.7328 34.5141L66.4811 35.2734C68.8766 36.0676 70.6001 38.2959 70.6 40.907L71.4 40.907ZM31.4798 5.97286C32.6171 5.63687 34.265 5.43804 36.0003 5.43804V4.63804C34.2178 4.63804 32.4879 4.84088 31.2531 5.20564L31.4798 5.97286ZM36.0003 5.43804C37.7353 5.43804 39.3832 5.63687 40.5204 5.97274L40.747 5.2055C39.5124 4.84088 37.7825 4.63804 36.0003 4.63804V5.43804ZM40.5204 5.97273L64.767 13.1344L64.9936 12.3672L40.747 5.2055L40.5204 5.97273ZM64.767 12.3672L55.0567 15.2354L55.2833 16.0026L64.9936 13.1344L64.767 12.3672ZM55.0508 15.2372C55.0522 15.2368 55.053 15.2365 55.0497 15.2375C55.0474 15.2381 55.0411 15.24 55.0341 15.2422L55.2725 16.0058C55.2712 16.0062 55.2704 16.0065 55.2737 16.0055C55.2759 16.0048 55.2823 16.003 55.2892 16.0008L55.0508 15.2372ZM55.04 15.2404L40.5205 19.529L40.7471 20.2963L55.2667 16.0076L55.04 15.2404ZM40.5205 19.529C39.3833 19.8649 37.7356 20.0637 36.0004 20.0637V20.8637C37.7827 20.8637 39.5125 20.6609 40.7471 20.2963L40.5205 19.529ZM36.0004 20.0637C34.2652 20.0637 32.6173 19.8649 31.48 19.529L31.2534 20.2963C32.488 20.6609 34.2181 20.8637 36.0004 20.8637V20.0637ZM31.48 19.529L16.9605 15.2404L16.7339 16.0076L31.2534 20.2963L31.48 19.529ZM16.9664 15.2422C16.9594 15.24 16.9531 15.2381 16.9509 15.2375C16.9476 15.2365 16.9484 15.2368 16.9497 15.2372L16.7113 16.0008C16.7183 16.003 16.7246 16.0048 16.7269 16.0055C16.7302 16.0065 16.7294 16.0062 16.728 16.0058L16.9664 15.2422ZM16.9438 15.2354L7.23353 12.3672L7.0069 13.1344L16.7172 16.0026L16.9438 15.2354ZM7.23352 13.1344L31.4798 5.97287L31.2532 5.20564L7.00691 12.3672L7.23352 13.1344ZM53.3189 28.9707C53.3189 28.9218 53.3322 28.9092 53.3156 28.9458C53.3024 28.9748 53.2753 29.0235 53.2254 29.0902C53.1258 29.2233 52.9476 29.4115 52.6496 29.6373C52.0535 30.0888 50.9999 30.6742 49.206 31.263L49.4555 32.0231C51.305 31.4161 52.4455 30.7955 53.1327 30.2749C53.4762 30.0146 53.712 29.7752 53.8658 29.5696C53.9426 29.467 54.0022 29.3687 54.044 29.2766C54.0823 29.1922 54.1189 29.0846 54.1189 28.9707H53.3189ZM49.206 31.263C45.7276 32.4046 41.038 33.0397 36.0001 33.0397V33.8397C41.0942 33.8397 45.8732 33.1988 49.4555 32.0231L49.206 31.263ZM36.0001 33.0397C30.9621 33.0397 26.2726 32.4046 22.7943 31.263L22.5448 32.0231C26.1269 33.1988 30.906 33.8397 36.0001 33.8397V33.0397ZM22.7942 31.263C21.0004 30.6742 19.9469 30.0888 19.3508 29.6372C19.0527 29.4114 18.8745 29.2232 18.7749 29.0901C18.725 29.0234 18.6978 28.9747 18.6847 28.9457C18.6681 28.9092 18.6814 28.9218 18.6814 28.9707H17.8814C17.8814 29.0846 17.918 29.1922 17.9563 29.2766C17.9981 29.3687 18.0577 29.467 18.1345 29.5696C18.2884 29.7751 18.5241 30.0146 18.8677 30.2749C19.5548 30.7955 20.6953 31.4161 22.5448 32.0231L22.7942 31.263ZM18.6814 28.9707V20.2636H17.8814V28.9707H18.6814ZM18.1681 20.6472L30.0748 24.164L30.3014 23.3968L18.3947 19.88L18.1681 20.6472ZM30.0748 24.164C31.6964 24.643 33.8006 24.9018 36.0003 24.9018V24.1018C33.8542 24.1018 31.8301 23.8483 30.3014 23.3968L30.0748 24.164ZM36.0003 24.9018C38.1998 24.9018 40.3039 24.643 41.9256 24.164L41.699 23.3968C40.1702 23.8483 38.1462 24.1018 36.0003 24.1018V24.9018ZM41.9256 24.164L53.8322 20.6472L53.6056 19.88L41.699 23.3968L41.9256 24.164ZM53.3189 20.2636V28.9707H54.1189V20.2636H53.3189ZM66.4986 49.5574C66.4986 50.6023 65.6327 51.4636 64.5562 51.4636V52.2636C66.0628 52.2636 67.2986 51.0558 67.2986 49.5574H66.4986ZM64.5562 51.4636C63.4796 51.4636 62.6138 50.6024 62.6138 49.5574H61.8138C61.8138 51.056 63.0496 52.2636 64.5562 52.2636V51.4636ZM62.6138 49.5574V40.9069H61.8138V49.5574H62.6138ZM62.6138 40.9069C62.6138 39.8618 63.4795 39.0004 64.5562 39.0004V38.2004C63.0494 38.2004 61.8138 39.4084 61.8138 40.9069H62.6138ZM64.5562 39.0004C65.6328 39.0004 66.4986 39.8618 66.4986 40.9069H67.2986C67.2986 39.4084 66.063 38.2004 64.5562 38.2004V39.0004ZM66.4986 40.9069V49.5574H67.2986V40.9069H66.4986Z" fill="white"/>
</g>
</g>
<defs>
<linearGradient id="paint0_linear" x1="7.81902" y1="-76.3945" x2="-27.1701" y2="32.9478" gradientUnits="userSpaceOnUse">
<stop stop-color="#E7FCFE"/>
<stop offset="0.597252" stop-color="#47C0D1"/>
<stop offset="1" stop-color="#8459F8"/>
</linearGradient>
</defs>
</svg>
