<svg width="63" height="54" viewBox="0 0 63 54" fill="none" xmlns="http://www.w3.org/2000/svg">
<path id="Combined Shape" fill-rule="evenodd" clip-rule="evenodd" d="M61.493 0H1.50704C0.674723 0 0 0.665771 0 1.48704V52.513C0 53.3342 0.674723 54 1.50704 54H61.493C62.3253 54 63 53.3342 63 52.513V1.48704C63 0.665771 62.3253 0 61.493 0ZM59.985 2.97309V51.0253H3.01407V2.97309H59.985ZM22.7533 18.8359V35.1641C22.7533 36.3059 24.0033 37.0217 25.008 36.4553L39.4874 28.2911C40.4998 27.7202 40.4998 26.2798 39.4874 25.7089L25.008 17.5447C24.0033 16.9783 22.7533 17.6941 22.7533 18.8359ZM25.7673 21.3985L35.7017 26.9997L25.7673 32.6009V21.3985ZM7.56473 39.2462H12.7655C13.5978 39.2462 14.2725 39.912 14.2725 40.7333V45.865C14.2725 46.6863 13.5978 47.3521 12.7655 47.3521H7.56473C6.73242 47.3521 6.05769 46.6863 6.05769 45.865V40.7333C6.05769 39.912 6.73242 39.2462 7.56473 39.2462ZM11.2576 44.3773V42.2201H9.07135V44.3773H11.2576ZM12.7655 16.3866H7.56473C6.73242 16.3866 6.05769 17.0524 6.05769 17.8736V23.0054C6.05769 23.8267 6.73242 24.4924 7.56473 24.4924H12.7655C13.5978 24.4924 14.2725 23.8267 14.2725 23.0054V17.8736C14.2725 17.0524 13.5978 16.3866 12.7655 16.3866ZM11.2576 19.3603V21.5175H9.07135V19.3603H11.2576ZM7.53518 27.8164H12.7359C13.5682 27.8164 14.243 28.4822 14.243 29.3035V34.4352C14.243 35.2565 13.5682 35.9222 12.7359 35.9222H7.53518C6.70287 35.9222 6.02814 35.2565 6.02814 34.4352V29.3035C6.02814 28.4822 6.70287 27.8164 7.53518 27.8164ZM11.2284 32.9479V30.7897H9.04121V32.9479H11.2284ZM12.7359 4.9568H7.53518C6.70287 4.9568 6.02814 5.62257 6.02814 6.44384V11.5756C6.02814 12.3969 6.70287 13.0626 7.53518 13.0626H12.7359C13.5682 13.0626 14.243 12.3969 14.243 11.5756V6.44384C14.243 5.62257 13.5682 4.9568 12.7359 4.9568ZM11.2284 7.92989V10.0881H9.04121V7.92989H11.2284ZM50.7664 39.2462H55.9672C56.7995 39.2462 57.4742 39.912 57.4742 40.7333V45.865C57.4742 46.6863 56.7995 47.3521 55.9672 47.3521H50.7664C49.9341 47.3521 49.2594 46.6863 49.2594 45.865V40.7333C49.2594 39.912 49.9341 39.2462 50.7664 39.2462ZM54.4592 44.3773V42.2201H52.273V44.3773H54.4592ZM55.9672 16.3866H50.7664C49.9341 16.3866 49.2594 17.0524 49.2594 17.8736V23.0054C49.2594 23.8267 49.9341 24.4924 50.7664 24.4924H55.9672C56.7995 24.4924 57.4742 23.8267 57.4742 23.0054V17.8736C57.4742 17.0524 56.7995 16.3866 55.9672 16.3866ZM54.4592 19.3603V21.5175H52.273V19.3603H54.4592ZM50.7369 27.8164H55.9376C56.7699 27.8164 57.4447 28.4822 57.4447 29.3035V34.4352C57.4447 35.2565 56.7699 35.9222 55.9376 35.9222H50.7369C49.9046 35.9222 49.2298 35.2565 49.2298 34.4352V29.3035C49.2298 28.4822 49.9046 27.8164 50.7369 27.8164ZM54.4301 32.9479V30.7897H52.2429V32.9479H54.4301ZM55.9376 4.9568H50.7369C49.9046 4.9568 49.2298 5.62257 49.2298 6.44384V11.5756C49.2298 12.3969 49.9046 13.0626 50.7369 13.0626H55.9376C56.7699 13.0626 57.4447 12.3969 57.4447 11.5756V6.44384C57.4447 5.62257 56.7699 4.9568 55.9376 4.9568ZM54.4301 7.92989V10.0881H52.2429V7.92989H54.4301Z" fill="url(#paint0_linear)"/>
<defs>
<linearGradient id="paint0_linear" x1="-44.5085" y1="11.2278" x2="-13.2863" y2="77.2713" gradientUnits="userSpaceOnUse">
<stop stop-color="#DCFF73"/>
<stop offset="1" stop-color="#8ECA6B"/>
</linearGradient>
</defs>
</svg>
