<svg width="25" height="22" viewBox="0 0 25 22" fill="none" xmlns="http://www.w3.org/2000/svg">
<path id="Combined Shape Copy" fill-rule="evenodd" clip-rule="evenodd" d="M23.2682 0H1.73169C0.776884 0 0 0.790558 0 1.76217V16.6306C0 17.6022 0.776884 18.3928 1.73169 18.3928H14.29L13.9108 20.746C13.8394 21.189 13.9834 21.5903 14.296 21.8193C14.6085 22.0482 15.0279 22.0605 15.4182 21.8512L18.1277 20.4C18.2033 20.3605 18.4116 20.3605 18.4872 20.4L21.1966 21.8512C21.382 21.9505 21.5739 21.9999 21.7579 21.9999C21.9613 21.9999 22.1549 21.9394 22.319 21.8191C22.6314 21.5902 22.7754 21.1888 22.7042 20.7458L22.3251 18.3927H23.2683C24.2231 18.3927 25 17.6021 25 16.6305V1.76217C24.9999 0.790458 24.223 0 23.2682 0ZM18.3075 15.3723C16.6434 15.3723 15.2894 13.9945 15.2894 12.3011C15.2894 10.6077 16.6434 9.22993 18.3075 9.22993C19.9716 9.22993 21.3256 10.6077 21.3256 12.3011C21.3256 13.9945 19.9716 15.3723 18.3075 15.3723ZM19.1786 19.0634C18.6738 18.793 17.9411 18.793 17.4364 19.0634L15.5209 20.0894L16.1298 16.3094C16.7757 16.6742 17.518 16.8827 18.3076 16.8827C19.0971 16.8827 19.8394 16.6741 20.4853 16.3094L20.7226 17.7831C20.7232 17.7855 20.7234 17.7881 20.7239 17.7905L21.0943 20.0895L19.1786 19.0634ZM23.5156 16.6306C23.5156 16.7671 23.4023 16.8824 23.2682 16.8824H22.0817L21.8106 15.1998C21.8102 15.1974 21.8097 15.195 21.8092 15.1926C21.8089 15.1912 21.8086 15.1899 21.8083 15.1886L21.8065 15.1802C22.4333 14.393 22.81 13.3911 22.81 12.3011C22.81 9.77479 20.7902 7.7195 18.3076 7.7195C15.8249 7.7195 13.8052 9.77479 13.8052 12.3011C13.8052 13.3911 14.1818 14.3928 14.8087 15.1802L14.8069 15.1884C14.806 15.1922 14.8052 15.1959 14.8045 15.1997L14.5333 16.8837L14.5231 16.8831C14.5183 16.8827 14.5135 16.8824 14.5087 16.8824H1.73169C1.5976 16.8824 1.4843 16.7671 1.4843 16.6306V1.76217C1.4843 1.62572 1.5976 1.51043 1.73169 1.51043H23.2682C23.4023 1.51043 23.5156 1.62572 23.5156 1.76217V16.6306ZM20.6436 4.34621H3.82148C3.41152 4.34621 3.07933 4.68424 3.07933 5.10142C3.07933 5.5186 3.41152 5.85664 3.82148 5.85664H20.6436C21.0535 5.85664 21.3857 5.5186 21.3857 5.10142C21.3857 4.68424 21.0535 4.34621 20.6436 4.34621ZM3.82148 8.44128H10.9461C11.3561 8.44128 11.6883 8.77932 11.6883 9.1965C11.6883 9.61368 11.3561 9.95171 10.9461 9.95171H3.82148C3.41152 9.95171 3.07933 9.61368 3.07933 9.1965C3.07933 8.77932 3.41152 8.44128 3.82148 8.44128Z" fill="#4E54C8"/>
</svg>
