<svg width="27" height="30" viewBox="0 0 27 30" fill="none" xmlns="http://www.w3.org/2000/svg">
<g id="Group 27 Copy">
<path id="Path" d="M8.72052 13.4522C8.53311 13.3059 8.2921 13.266 8.0728 13.345L1.82017 15.5959C1.32961 15.7725 1 16.267 1 16.8264V27.3259C1 28.041 1.53769 28.6228 2.19859 28.6228H8.29986C8.69703 28.6228 9.01901 28.2744 9.01901 27.8447V14.0833C9.01901 13.8332 8.90793 13.5984 8.72052 13.4522Z" fill="white" stroke="#4E54C8" stroke-width="1.2"/>
<path id="Path_2" d="M24.7267 15.5959L18.4708 13.3449C18.2516 13.2659 18.0105 13.3059 17.8232 13.4521C17.6357 13.5984 17.5247 13.8332 17.5247 14.0832V27.8447C17.5247 28.2744 17.8466 28.6227 18.2438 28.6227H24.3484C25.0093 28.6227 25.547 28.041 25.547 27.3259V16.8265C25.547 16.267 25.2174 15.7725 24.7267 15.5959Z" fill="white" stroke="#4E54C8" stroke-width="1.2"/>
<g id="Combined Shape">
<path fill-rule="evenodd" clip-rule="evenodd" d="M12.5544 8.90267L12.9082 8.67857C13.0209 8.60699 13.1474 8.57172 13.2735 8.57172C13.3987 8.57224 13.5233 8.60803 13.635 8.67857L13.9927 8.90526L18.3699 11.6779C18.7357 11.9092 18.963 12.3382 18.963 12.7968V27.8446C18.963 28.2741 18.6408 28.6227 18.2438 28.6227H15.8021L13.2735 26.6775L10.745 28.6227H8.29987C7.9029 28.6227 7.58072 28.2741 7.58072 27.8446V12.7968C7.58072 12.3382 7.80797 11.9097 8.17378 11.6779L12.5544 8.90267Z" fill="white"/>
<path d="M12.9082 8.67857L13.2292 9.18546L13.23 9.185L12.9082 8.67857ZM12.5544 8.90267L12.2333 8.39578L12.2333 8.39582L12.5544 8.90267ZM13.2735 8.57172L13.276 7.97172H13.2735V8.57172ZM13.635 8.67857L13.9562 8.17179L13.9554 8.17127L13.635 8.67857ZM13.9927 8.90526L13.6715 9.41204L13.6716 9.41213L13.9927 8.90526ZM18.3699 11.6779L18.0488 12.1847L18.0492 12.185L18.3699 11.6779ZM15.8021 28.6227L15.4362 29.0983L15.598 29.2227H15.8021V28.6227ZM13.2735 26.6775L13.6394 26.2019L13.2735 25.9205L12.9077 26.2019L13.2735 26.6775ZM10.745 28.6227V29.2227H10.9491L11.1108 29.0983L10.745 28.6227ZM8.17378 11.6779L7.85268 11.171L7.85256 11.1711L8.17378 11.6779ZM12.5872 8.17169L12.2333 8.39578L12.8754 9.40956L13.2292 9.18546L12.5872 8.17169ZM13.2735 7.97172C13.0349 7.97172 12.7965 8.03868 12.5864 8.17215L13.23 9.185C13.2452 9.1753 13.26 9.17172 13.2735 9.17172V7.97172ZM13.9554 8.17127C13.7497 8.04138 13.5151 7.97271 13.276 7.97172L13.271 9.17171C13.2822 9.17176 13.2969 9.17467 13.3146 9.18588L13.9554 8.17127ZM14.3139 8.39848L13.9562 8.17179L13.3138 9.18536L13.6715 9.41204L14.3139 8.39848ZM18.691 11.171L14.3137 8.39839L13.6716 9.41213L18.0488 12.1847L18.691 11.171ZM19.563 12.7968C19.563 12.1474 19.2426 11.5198 18.6906 11.1708L18.0492 12.185C18.2289 12.2986 18.363 12.529 18.363 12.7968H19.563ZM19.563 27.8446V12.7968H18.363V27.8446H19.563ZM18.2438 29.2227C19.0158 29.2227 19.563 28.5601 19.563 27.8446H18.363C18.363 27.9086 18.3392 27.9576 18.3116 27.9875C18.2848 28.0166 18.2604 28.0227 18.2438 28.0227V29.2227ZM15.8021 29.2227H18.2438V28.0227H15.8021V29.2227ZM12.9077 27.153L15.4362 29.0983L16.1679 28.1472L13.6394 26.2019L12.9077 27.153ZM11.1108 29.0983L13.6394 27.153L12.9077 26.2019L10.3791 28.1472L11.1108 29.0983ZM8.29987 29.2227H10.745V28.0227H8.29987V29.2227ZM6.98072 27.8446C6.98072 28.5601 7.5279 29.2227 8.29987 29.2227V28.0227C8.28328 28.0227 8.25893 28.0166 8.23206 27.9875C8.20446 27.9576 8.18072 27.9086 8.18072 27.8446H6.98072ZM6.98072 12.7968V27.8446H8.18072V12.7968H6.98072ZM7.85256 11.1711C7.30141 11.5205 6.98072 12.147 6.98072 12.7968H8.18072C8.18072 12.5294 8.31454 12.299 8.495 12.1846L7.85256 11.1711ZM12.2333 8.39582L7.85268 11.171L8.49488 12.1847L12.8755 9.40951L12.2333 8.39582Z" fill="#4E54C8"/>
</g>
<g id="Combined Shape_2">
<path fill-rule="evenodd" clip-rule="evenodd" d="M13.2735 20.4787C11.8793 20.4787 10.745 21.706 10.745 23.2145V28.6227H13.2735H15.802V23.2145C15.802 21.706 14.6677 20.4787 13.2735 20.4787Z" fill="white"/>
<path d="M10.745 28.6227H10.145V29.2227H10.745V28.6227ZM15.802 28.6227V29.2227H16.402V28.6227H15.802ZM11.345 23.2145C11.345 21.992 12.2543 21.0787 13.2735 21.0787V19.8787C11.5043 19.8787 10.145 21.42 10.145 23.2145H11.345ZM11.345 28.6227V23.2145H10.145V28.6227H11.345ZM13.2735 28.0227H10.745V29.2227H13.2735V28.0227ZM15.802 28.0227H13.2735V29.2227H15.802V28.0227ZM15.202 23.2145V28.6227H16.402V23.2145H15.202ZM13.2735 21.0787C14.2927 21.0787 15.202 21.992 15.202 23.2145H16.402C16.402 21.42 15.0427 19.8787 13.2735 19.8787V21.0787Z" fill="#4E54C8"/>
</g>
<path id="Path 46" d="M13.2718 1V9.13164" stroke="#4E54C8" stroke-width="1.2" stroke-linecap="round" stroke-linejoin="round"/>
<rect id="Rectangle" x="13.2129" y="1" width="5.63672" height="4.06582" stroke="#4E54C8" stroke-width="1.2" stroke-linecap="round" stroke-linejoin="round"/>
</g>
</svg>
