<svg width="17" height="19" viewBox="0 0 17 19" fill="none" xmlns="http://www.w3.org/2000/svg">
<path d="M3 1H13.5V7.75C13.5 10.6495 11.1495 13 8.25 13V13C5.35051 13 3 10.6495 3 7.75V1Z" stroke="#191648" stroke-linejoin="round"/>
<path fill-rule="evenodd" clip-rule="evenodd" d="M8.24999 8.52431L6.57775 9.40346C6.49569 9.4466 6.3942 9.41505 6.35106 9.33299C6.33388 9.30032 6.32795 9.26289 6.33419 9.2265L6.65356 7.36444L5.30069 6.04571C5.23431 5.981 5.23295 5.87473 5.29766 5.80834C5.32342 5.78191 5.35719 5.76471 5.39372 5.7594L7.26334 5.48772L8.09946 3.79356C8.14049 3.71043 8.24115 3.67629 8.32428 3.71732C8.35738 3.73366 8.38418 3.76045 8.40051 3.79356L9.23663 5.48772L11.1063 5.7594C11.198 5.77273 11.2616 5.85791 11.2482 5.94965C11.2429 5.98618 11.2257 6.01994 11.1993 6.04571L9.84642 7.36444L10.1658 9.2265C10.1815 9.31788 10.1201 9.40465 10.0287 9.42032C9.99233 9.42656 9.95491 9.42063 9.92223 9.40346L8.24999 8.52431Z" stroke="#191648" stroke-linejoin="round"/>
<path fill-rule="evenodd" clip-rule="evenodd" d="M0.75 1.75V7.75V1.75Z" stroke="#191648" stroke-linejoin="round"/>
<path fill-rule="evenodd" clip-rule="evenodd" d="M15.75 1.75V7.75V1.75Z" stroke="#191648" stroke-linejoin="round"/>
<path d="M8.25 13.75V18.25" stroke="#191648" stroke-linecap="round"/>
<path d="M5.25 18.25H11.25" stroke="#191648" stroke-linecap="round"/>
</svg>
