<svg width="70" height="50" viewBox="0 0 70 50" fill="none" xmlns="http://www.w3.org/2000/svg">
<g id="Group 16">
<path id="Fill 1" fill-rule="evenodd" clip-rule="evenodd" d="M50.8899 29.2339H60.6091V17.4479C60.4586 17.4479 60.311 17.4479 60.1633 17.4479C59.3414 17.4476 58.5193 17.4598 57.6977 17.4441C56.5476 17.4221 55.6809 16.5543 55.6831 15.4511C55.6853 14.3479 56.56 13.4879 57.7123 13.4856C61 13.4793 64.2876 13.4789 67.5751 13.486C68.7195 13.4885 69.6059 14.3691 69.6 15.4649C69.5941 16.5339 68.7196 17.4154 67.6069 17.4432C66.6465 17.4672 65.6854 17.461 64.7247 17.4689C64.7112 17.4691 64.6978 17.4808 64.6236 17.5157V18.0713C64.6236 27.5974 64.6242 37.1235 64.6207 46.6496C64.6205 46.9556 64.6223 47.2734 64.5451 47.5654C64.2932 48.5164 63.3853 49.1005 62.3819 48.9954C61.4181 48.8943 60.6748 48.067 60.6372 47.0233C60.6162 46.4383 60.6318 45.852 60.6318 45.2663C60.6317 41.4588 60.6317 37.6515 60.6317 33.8442V33.2616H50.9094C50.9925 33.3999 51.048 33.5037 51.1137 33.6006C55.1853 39.6138 51.7502 47.6456 44.5773 48.8826C40.6289 49.5635 36.552 47.7103 34.4582 44.2831C33.7946 43.1968 34.0199 42.0234 35.01 41.4101C36.0003 40.7965 37.1613 41.1169 37.842 42.1916C39.151 44.2578 41.5281 45.3734 43.7903 44.9832C46.3629 44.5395 48.1929 42.8315 48.7514 40.3529C49.5241 36.9241 46.9475 33.4948 43.4214 33.256C43.0816 33.2329 42.7334 33.2299 42.4057 33.15C41.493 32.9277 40.8921 32.0524 40.9563 31.0943C41.0184 30.1658 41.7267 29.4352 42.6547 29.2854C43.5206 29.1457 44.4286 29.0874 45.2319 28.7748C47.6062 27.8509 49.0805 25.4015 48.8727 22.9356C48.6521 20.3181 46.8768 18.2413 44.3172 17.6064C41.8765 17.0011 39.2647 18.0461 37.9093 20.1977C37.5659 20.7427 37.1694 21.1935 36.5183 21.3347C35.6831 21.5159 34.9728 21.2747 34.4621 20.591C33.9521 19.9085 33.9078 19.1552 34.3366 18.4207C35.6563 16.161 37.5891 14.6446 40.0991 13.8887C46.0079 12.1093 52.1321 16.1569 52.8022 22.2585C53.0636 24.639 52.4916 26.808 51.1767 28.7982C51.093 28.9249 51.0096 29.052 50.8899 29.2339Z" fill="url(#paint0_linear)"/>
<path id="A" fill-rule="evenodd" clip-rule="evenodd" d="M28.3111 35.2C28.5778 35.2 28.8444 35.1556 29.1111 35.0667C30 34.8444 30.7111 34.1778 30.7111 33.2889C30.7111 33.0222 30.6667 32.8 30.5333 32.5333L18.4444 2.08889C17.8667 0.577778 16.7111 0 15.2889 0C13.9111 0 12.8 0.577778 12.2222 2.08889L0.133333 32.4444C0.0444444 32.7111 0 32.9333 0 33.2C0 34.0444 0.666667 34.8 1.55556 35.0222C1.86667 35.1111 2.13333 35.1556 2.44444 35.1556C3.2 35.1556 3.86667 34.8 4.17778 33.9111L7.6 24.7556H22.9778L26.4889 33.9556C26.8 34.8 27.5111 35.2 28.3111 35.2ZM21.6444 21.0222H8.93333L13.9556 8.13333C14.4889 6.8 14.9333 5.37778 15.3333 3.86667C15.7333 5.37778 16.2222 6.8 16.7111 8.08889L21.6444 21.0222Z" fill="url(#paint1_linear)"/>
</g>
<defs>
<linearGradient id="paint0_linear" x1="1.22923" y1="21.8023" x2="43.3583" y2="68.0092" gradientUnits="userSpaceOnUse">
<stop stop-color="#DCFF73"/>
<stop offset="1" stop-color="#8ECA6B"/>
</linearGradient>
<linearGradient id="paint1_linear" x1="-28.3441" y1="8.25232" x2="13.5013" y2="48.2952" gradientUnits="userSpaceOnUse">
<stop stop-color="#DCFF73"/>
<stop offset="1" stop-color="#8ECA6B"/>
</linearGradient>
</defs>
</svg>
