<svg width="64" height="61" viewBox="0 0 64 61" fill="none" xmlns="http://www.w3.org/2000/svg">
<path fill-rule="evenodd" clip-rule="evenodd" d="M10.6085 52.5761C3.35844 44.6607 -0.316691 35.7865 0.65088 26.0176L3.62637 26.4151C2.78725 35.2074 6.13005 43.2451 12.8208 50.5498C18.4284 56.6721 27.845 57.2955 34.2334 52.3368L34.3168 52.2704C35.6543 48.2513 37.384 43.7272 39.3689 39.0904C39.6313 38.4776 39.8954 37.869 40.1609 37.2656L40.12 37.0248C39.7252 34.8969 38.8326 32.8162 37.5168 30.9429L45.8768 32.0598L46.094 31.613L49.942 33.209L49.7527 33.719L51.0612 34.2791C51.8539 34.6184 52.7689 34.2211 53.0621 33.4102C53.0627 33.4086 53.0633 33.407 53.0638 33.4053C53.0634 33.4066 53.0629 33.4078 53.0625 33.4091C51.9287 36.5523 50.6099 39.891 49.1587 43.2811C46.6857 49.0582 44.0662 54.4279 41.6664 58.6741C40.4947 60.7473 37.9174 61.5572 35.7712 60.5257C34.1987 59.77 33.2394 58.2052 33.2076 56.5383C25.8614 60.3384 16.4893 58.9966 10.6085 52.5761ZM52.797 24.5536L52.7751 24.6322C52.3297 26.2009 51.788 27.9254 51.1622 29.7659L50.9504 30.3792L51.9924 30.8114C52.3941 30.9781 52.7037 31.3109 52.841 31.7236L53.0748 32.4267C53.1807 32.745 53.1768 33.0896 53.0638 33.4053C54.2074 30.2426 55.1496 27.3236 55.8413 24.8062C56.3814 24.5311 56.8318 24.0724 57.089 23.4717L57.8788 21.6265C58.0266 21.2813 58.0963 20.9222 58.096 20.569C60.0903 19.228 61.7647 17.4665 62.7268 15.2188C63.9534 12.3535 63.6327 8.01349 62.5878 3.29874C62.2347 1.70499 60.425 0.930342 59.028 1.77499C54.8961 4.2729 51.5339 7.03708 50.3074 9.90239C49.3452 12.1502 49.2265 14.5776 49.6329 16.9463C49.3771 17.1898 49.1655 17.4882 49.0177 17.8334L48.2279 19.6785C47.9708 20.2792 47.9498 20.9218 48.1235 21.5024C46.7789 23.7414 45.3165 26.4395 43.8164 29.4524L43.8072 29.4714L43.8171 29.4515C44.0128 29.059 44.3706 28.7719 44.7961 28.6657L45.579 28.4704C45.891 28.3925 46.2198 28.417 46.5169 28.5402L47.4461 28.9256C48.4582 26.9628 49.441 25.171 50.366 23.6008L50.4073 23.5307L52.797 24.5536ZM54.5079 21.8785L51.1617 20.4461L51.5979 19.4258L54.9439 20.858L54.5079 21.8785ZM56.4164 18.0813L52.5922 16.4443L52.5901 16.4329C52.278 14.5822 52.3682 12.7115 53.0653 11.083C53.863 9.21949 56.4106 7.00421 59.5233 5.00127L59.838 4.79996L59.9116 5.16753C60.611 8.80274 60.7666 12.1747 59.9689 14.0383L59.8313 14.3404C59.1094 15.8352 57.8834 17.0892 56.426 18.0751L56.4164 18.0813ZM16.5153 28.1371L37.5168 30.9429C37.3248 30.6695 37.1238 30.4006 36.914 30.1366L36.3953 29.5001C34.684 27.336 33.7637 24.7871 33.7637 21.8757C33.7637 15.2379 37.9612 11.0267 44.9936 8.92576C48.9119 7.75527 48.6208 2.10268 44.593 1.29715C24.6018 -2.7009 5.43662 8.13671 3.63627 26.3133C3.63291 26.3472 3.62961 26.3812 3.62637 26.4151L15.5573 28.0091C15.427 28.0014 15.2956 27.9975 15.1633 27.9975C11.5445 27.9975 8.61094 30.9311 8.61094 34.5499C8.61094 38.1686 11.5445 41.1023 15.1633 41.1023C18.7821 41.1023 21.7157 38.1686 21.7157 34.5499C21.7157 31.3945 19.4855 28.7601 16.5153 28.1371ZM16.5153 28.1371L15.5573 28.0091C15.8837 28.0285 16.2036 28.0717 16.5153 28.1371ZM21.2343 9.86434C21.2343 6.82467 23.6985 4.36052 26.7381 4.36052C29.7778 4.36052 32.242 6.82467 32.242 9.86434C32.242 12.904 29.7778 15.3682 26.7381 15.3682C23.6985 15.3682 21.2343 12.904 21.2343 9.86434ZM29.242 9.86434C29.242 8.48152 28.121 7.36052 26.7381 7.36052C25.3553 7.36052 24.2343 8.48152 24.2343 9.86434C24.2343 11.2472 25.3553 12.3682 26.7381 12.3682C28.121 12.3682 29.242 11.2472 29.242 9.86434ZM24.9295 39.4166C21.4977 39.4166 18.7157 42.1986 18.7157 45.6304C18.7157 49.0621 21.4977 51.8441 24.9295 51.8441C28.3613 51.8441 31.1433 49.0621 31.1433 45.6304C31.1433 42.1986 28.3613 39.4166 24.9295 39.4166ZM24.9295 42.4166C26.7044 42.4166 28.1433 43.8554 28.1433 45.6304C28.1433 47.4053 26.7044 48.8441 24.9295 48.8441C23.1546 48.8441 21.7157 47.4053 21.7157 45.6304C21.7157 43.8554 23.1546 42.4166 24.9295 42.4166ZM10.3193 20.0645C10.3193 16.4457 13.2529 13.5121 16.8717 13.5121C20.4905 13.5121 23.4241 16.4457 23.4241 20.0645C23.4241 23.6833 20.4905 26.6169 16.8717 26.6169C13.2529 26.6169 10.3193 23.6833 10.3193 20.0645ZM20.4241 20.0645C20.4241 18.1025 18.8336 16.5121 16.8717 16.5121C14.9097 16.5121 13.3193 18.1025 13.3193 20.0645C13.3193 22.0264 14.9097 23.6169 16.8717 23.6169C18.8336 23.6169 20.4241 22.0264 20.4241 20.0645ZM15.1633 30.9974C17.1253 30.9974 18.7157 32.5879 18.7157 34.5499C18.7157 36.5118 17.1253 38.1023 15.1633 38.1023C13.2014 38.1023 11.6109 36.5118 11.6109 34.5499C11.6109 32.5879 13.2014 30.9974 15.1633 30.9974Z" fill="url(#paint0_linear)"/>
<defs>
<linearGradient id="paint0_linear" x1="-9.0285" y1="9.41194" x2="10.3221" y2="66.9944" gradientUnits="userSpaceOnUse">
<stop stop-color="#CE244F"/>
<stop offset="1" stop-color="#FFA776"/>
</linearGradient>
</defs>
</svg>
